<?xml version="1.0" encoding="UTF-8"?>
<!DOCTYPE svg PUBLIC "-//W3C//DTD SVG 1.1//EN" "http://www.w3.org/Graphics/SVG/1.1/DTD/svg11.dtd">
<!-- Creator: CorelDRAW 2019 (64-Bit) -->
<svg xmlns="http://www.w3.org/2000/svg" xml:space="preserve" width="1in" height="1in" version="1.1" style="shape-rendering:geometricPrecision; text-rendering:geometricPrecision; image-rendering:optimizeQuality; fill-rule:evenodd; clip-rule:evenodd"
viewBox="0 0 1000 1000"
 xmlns:xlink="http://www.w3.org/1999/xlink">
 <defs>
  <style type="text/css">
   <![CDATA[
    .str0 {stroke:black;stroke-width:13.89;stroke-miterlimit:2.61313}
    .fil0 {fill:none}
   ]]>
  </style>
 </defs>
 <g id="Layer_x0020_1">
  <metadata id="CorelCorpID_0Corel-Layer"/>
  <g id="_1592203700784">
   <circle class="fil0 str0" cx="497.85" cy="499.9" r="475"/>
   <path class="fil0 str0" d="M409.69 600.96l-168.46 0c-32.86,0 -59.75,-26.89 -59.75,-59.75l0 -56.84c0,-32.86 26.89,-59.75 59.75,-59.75l168.46 0 0 -168.46c0,-32.86 26.89,-59.75 59.75,-59.75l56.84 0c32.86,0 59.75,26.89 59.75,59.75l0 168.46 168.46 0c32.86,0 59.75,26.89 59.75,59.75l0 56.84c0,32.86 -26.89,59.75 -59.75,59.75l-168.46 0 0 168.46c0,32.85 -26.9,59.75 -59.75,59.75l-56.84 0c-32.85,0 -59.75,-26.89 -59.75,-59.75l0 -168.46z"/>
  </g>
 </g>
</svg>
