<?xml version="1.0" encoding="UTF-8"?>
<!DOCTYPE svg PUBLIC "-//W3C//DTD SVG 1.1//EN" "http://www.w3.org/Graphics/SVG/1.1/DTD/svg11.dtd">
<!-- Creator: CorelDRAW 2019 (64-Bit) -->
<svg xmlns="http://www.w3.org/2000/svg" xml:space="preserve" width="3in" height="1in" version="1.1" style="shape-rendering:geometricPrecision; text-rendering:geometricPrecision; image-rendering:optimizeQuality; fill-rule:evenodd; clip-rule:evenodd"
viewBox="0 0 3000 1000"
 xmlns:xlink="http://www.w3.org/1999/xlink">
 <defs>
  <style type="text/css">
   <![CDATA[
    .str1 {stroke:#FEFEFE;stroke-width:55.56;stroke-miterlimit:2.61313}
    .str0 {stroke:#003071;stroke-width:55.56;stroke-miterlimit:2.61313}
    .fil1 {fill:none}
    .fil0 {fill:#003071}
    .fil2 {fill:#282829;fill-rule:nonzero}
   ]]>
  </style>
 </defs>
 <g id="Layer_x0020_1">
  <metadata id="CorelCorpID_0Corel-Layer"/>
  <rect class="fil0 str0" x="312.79" y="86.21" width="2374.4" height="827.57"/>
  <path class="fil1 str1" d="M450.14 818.81l167.07 -668.24 167.06 668.24m-292.36 -167.06l250.59 0"/>
  <polyline class="fil1 str1" points="1138.38,150.57 804.27,484.69 1138.38,818.81 1138.38,484.69 "/>
  <path class="fil1 str1" d="M2594.85 818.81l-167.05 -668.24 -167.06 668.24m41.77 -167.06l250.58 0"/>
  <g id="_2299975371264">
   <path class="fil1 str1" d="M1599.95 223.78c105.69,39.48 180.98,141.41 180.98,260.91 0,153.77 -124.66,278.43 -278.43,278.43m-91.67 -15.45c-108.72,-37.9 -186.76,-141.32 -186.76,-262.98 0,-153.78 124.66,-278.43 278.43,-278.43"/>
   <polygon class="fil2 str1" points="1382.48,704.95 1410.15,760.4 1349.21,764.15 "/>
   <polygon class="fil2 str1" points="1630.23,272.52 1592.36,223.47 1651.43,208 "/>
  </g>
  <g id="_2299975364288">
   <polyline class="fil1 str1" points="1863.96,654.99 2170.3,406.13 1866.62,181.59 1863.96,822.05 "/>
   <line class="fil1 str1" x1="2022.27" y1="536.26" x2="2198.09" y2= "822.05" />
  </g>
 </g>
</svg>
