<?xml version="1.0" encoding="UTF-8"?>
<!DOCTYPE svg PUBLIC "-//W3C//DTD SVG 1.1//EN" "http://www.w3.org/Graphics/SVG/1.1/DTD/svg11.dtd">
<!-- Creator: CorelDRAW 2019 (64-Bit) -->
<svg xmlns="http://www.w3.org/2000/svg" xml:space="preserve" width="1in" height="1in" version="1.1" style="shape-rendering:geometricPrecision; text-rendering:geometricPrecision; image-rendering:optimizeQuality; fill-rule:evenodd; clip-rule:evenodd"
viewBox="0 0 1000 1000"
 xmlns:xlink="http://www.w3.org/1999/xlink">
 <defs>
  <style type="text/css">
   <![CDATA[
    .str0 {stroke:black;stroke-width:13.89;stroke-miterlimit:2.61313}
    .fil0 {fill:black}
   ]]>
  </style>
 </defs>
 <g id="Layer_x0020_1">
  <metadata id="CorelCorpID_0Corel-Layer"/>
  <path class="fil0 str0" d="M121.65 847.01l158.38 0.15 179.51 -0.22 0 60.16c7.66,7.5 20.19,7.5 27.85,-0l113.57 -111.22c7.66,-7.51 7.66,-19.78 0,-27.27l-113.57 -111.23c-7.66,-7.5 -20.19,-7.5 -27.85,0l0 52.46 -118.59 0.15 161.69 -364.09 8.55 19.26c17.94,-39.72 25.12,-71.89 48.43,-81.62 14.06,-5.87 33.55,-2.63 75.94,10.69l-132.77 -263.94 -381.13 816.72zm-17.94 38.44l158.81 1.14 -41.61 93.7 -161.46 0 44.26 -94.83zm621.28 -38.84l160.86 0.85 -191.98 -426.54 56.96 -26.09c3.7,-9.98 -1.62,-21.09 -11.8,-24.7l-150.98 -53.64c-10.18,-3.62 -21.54,1.57 -25.23,11.54l-54.78 147.87c-3.7,9.98 1.62,21.09 11.8,24.71l42.79 -19.6 101.5 228.56 -67.25 0.83c32.82,36.26 44.68,42.2 48.76,64.57 3.97,21.74 -19.3,40.76 -48.5,71.79l127.85 -0.16zm16.15 36.36l161.15 0.68 43.53 96.63 -161.46 0 -43.22 -97.31z"/>
 </g>
</svg>
