<?xml version="1.0" encoding="UTF-8"?>
<!DOCTYPE svg PUBLIC "-//W3C//DTD SVG 1.1//EN" "http://www.w3.org/Graphics/SVG/1.1/DTD/svg11.dtd">
<!-- Creator: CorelDRAW 2019 (64-Bit) -->
<svg xmlns="http://www.w3.org/2000/svg" xml:space="preserve" width="1in" height="1in" version="1.1" style="shape-rendering:geometricPrecision; text-rendering:geometricPrecision; image-rendering:optimizeQuality; fill-rule:evenodd; clip-rule:evenodd"
viewBox="0 0 1000 1000"
 xmlns:xlink="http://www.w3.org/1999/xlink">
 <defs>
  <style type="text/css">
   <![CDATA[
    .str0 {stroke:black;stroke-width:13.89;stroke-miterlimit:2.61313}
    .fil0 {fill:none}
   ]]>
  </style>
 </defs>
 <g id="Layer_x0020_1">
  <metadata id="CorelCorpID_0Corel-Layer"/>
  <path class="fil0 str0" d="M878.63 707.76c61.31,-58.42 97.77,-131.59 97.77,-211 0,-191.25 -211.44,-346.3 -472.28,-346.3 -260.83,0 -472.28,155.04 -472.28,346.3 0,191.25 211.44,346.29 472.28,346.29 60.19,0 117.76,-8.26 170.7,-23.31l266.59 123.35 -62.78 -235.33zm-382.84 -264.42c27.61,0 50,22.38 50,50 0,27.62 -22.39,50 -50,50 -27.61,0 -50,-22.38 -50,-50 0,-27.62 22.39,-50 50,-50zm-246.67 0c27.61,0 50,22.38 50,50 0,27.62 -22.39,50 -50,50 -27.61,0 -50,-22.38 -50,-50 0,-27.62 22.39,-50 50,-50zm510 0c27.61,0 50,22.38 50,50 0,27.62 -22.39,50 -50,50 -27.61,0 -50,-22.38 -50,-50 0,-27.62 22.39,-50 50,-50z"/>
 </g>
</svg>
