<?xml version="1.0" encoding="UTF-8"?>
<!DOCTYPE svg PUBLIC "-//W3C//DTD SVG 1.1//EN" "http://www.w3.org/Graphics/SVG/1.1/DTD/svg11.dtd">
<!-- Creator: CorelDRAW 2019 (64-Bit) -->
<svg xmlns="http://www.w3.org/2000/svg" xml:space="preserve" width="1in" height="1in" version="1.1" style="shape-rendering:geometricPrecision; text-rendering:geometricPrecision; image-rendering:optimizeQuality; fill-rule:evenodd; clip-rule:evenodd"
viewBox="0 0 1000 1000"
 xmlns:xlink="http://www.w3.org/1999/xlink">
 <defs>
  <style type="text/css">
   <![CDATA[
    .str0 {stroke:black;stroke-width:13.89;stroke-miterlimit:2.61313}
    .fil0 {fill:none}
   ]]>
  </style>
 </defs>
 <g id="Layer_x0020_1">
  <metadata id="CorelCorpID_0Corel-Layer"/>
  <g id="_1591966245200">
   <path class="fil0 str0" d="M783.1 287.16l141.41 118.66c28.55,23.96 32.31,66.91 8.35,95.46l-377.92 450.38c-23.95,28.55 -66.91,32.31 -95.46,8.35l-242.56 -203.53c-4.47,-3.75 -8.33,-7.96 -11.57,-12.52"/>
   <path class="fil0 str0" d="M573.98 118.04l175.33 63.82c35.02,12.74 53.24,51.82 40.5,86.84l-201.09 552.48c-12.74,35.02 -51.82,53.24 -86.84,40.5l-297.55 -108.3c-6.42,-2.33 -12.27,-5.56 -17.47,-9.47"/>
   <rect class="fil0 str0" x="121.83" y="20.52" width="452.16" height="723.45" rx="67.76" ry="67.76"/>
  </g>
 </g>
</svg>
